<?xml version="1.0" encoding="UTF-8"?>
<svg width="40px" height="40px" viewBox="0 0 40 40" version="1.1" xmlns="http://www.w3.org/2000/svg" xmlns:xlink="http://www.w3.org/1999/xlink">
    <!-- Generator: Sketch 60.1 (88133) - https://sketch.com -->
    <title>new_product_details_page_service@2x</title>
    <desc>Created with Sketch.</desc>
    <g id="页面-1" stroke="none" stroke-width="1" fill="none" fill-rule="evenodd">
        <g id="所有商品" transform="translate(-40.000000, -2394.000000)">
            <g id="编组-9" transform="translate(0.000000, 1445.000000)">
                <g id="Group-25" transform="translate(40.000000, 910.000000)">
                    <g id="Group-37" transform="translate(0.000000, 39.000000)">
                        <rect id="Rectangle-26" fill-rule="nonzero" x="0" y="0" width="40" height="40"></rect>
                        <path d="M5.50010287,8.54249055 C5.50038645,9.99833422 5.50127726,11.4240464 5.50303263,13.6577699 C5.50469778,15.776693 5.50513256,16.3824071 5.50559545,17.3890119 C5.50590631,18.0650105 5.50606618,18.6967606 5.50606618,19.3104286 C5.50606618,27.6149951 11.503284,33.7702485 19.4088184,36.0416834 C27.3142306,33.77023 33.3110294,27.6153013 33.3110294,19.3106131 C33.3110294,18.6964638 33.3111847,18.0642126 33.3114865,17.3876226 C33.3119355,16.3814084 33.312357,15.7759642 33.313971,13.6578287 C33.3156732,11.4240419 33.316537,9.99833076 33.316812,8.54247968 C32.2366305,8.19514822 30.7016185,7.70091475 30.129582,7.51933518 C28.4096815,6.97339303 26.9347748,6.5243953 25.4259879,6.09382564 C23.4360263,5.52594086 21.4636876,5.01373825 19.408456,4.53899644 C17.3532458,5.01373375 15.3809379,5.52593277 13.3909749,6.0938244 C11.8822487,6.52438166 10.4074241,6.97335812 8.68741078,7.51933535 C8.11581348,7.70077529 6.58059288,8.19506911 5.50010287,8.54249055 Z" id="Fill-1" stroke="#333333" stroke-width="3"></path>
                        <path d="M19.2173518,26.3207895 L12.0748093,19.9676689 L13.9726331,18.4239217 L17.7702544,21.236564 C17.7702544,21.236564 23.014076,15.7912122 28.0768534,13.25 L28.7999535,14.0677123 C28.7999535,14.0677123 22.4720201,19.3316905 19.2173518,26.3207895 L19.2173518,26.3207895 Z" id="Fill-1" fill="#333333"></path>
                    </g>
                </g>
            </g>
        </g>
    </g>
</svg>